<svg xmlns="http://www.w3.org/2000/svg" width="20" height="20" viewBox="0 0 20 20" fill="none">
	<g clipPath="url(#clip0_1_763)">
		<mask id="mask0_1_763" maskUnits="userSpaceOnUse" x="0" y="0" width="20" height="20">
			<path d="M0 0H20V20H0V0Z" fill="white" />
		</mask>
		<g mask="url(#mask0_1_763)">
			<path d="M12.5013 0.833252H3.33464C2.41797 0.833252 1.66797 1.58325 1.66797 2.49992V13.3333C1.66797 13.7916 2.04297 14.1666 2.5013 14.1666C2.95964 14.1666 3.33464 13.7916 3.33464 13.3333V3.33325C3.33464 2.87492 3.70964 2.49992 4.16797 2.49992H12.5013C12.9596 2.49992 13.3346 2.12492 13.3346 1.66659C13.3346 1.20825 12.9596 0.833252 12.5013 0.833252ZM15.8346 4.16659H6.66797C5.7513 4.16659 5.0013 4.91659 5.0013 5.83325V17.4999C5.0013 18.4166 5.7513 19.1666 6.66797 19.1666H15.8346C16.7513 19.1666 17.5013 18.4166 17.5013 17.4999V5.83325C17.5013 4.91659 16.7513 4.16659 15.8346 4.16659ZM15.0013 17.4999H7.5013C7.04297 17.4999 6.66797 17.1249 6.66797 16.6666V6.66659C6.66797 6.20825 7.04297 5.83325 7.5013 5.83325H15.0013C15.4596 5.83325 15.8346 6.20825 15.8346 6.66659V16.6666C15.8346 17.1249 15.4596 17.4999 15.0013 17.4999Z" fill="white" />
		</g>
	</g>
	<defs>
		<clipPath id="clip0_1_763">
			<rect width="20" height="20" fill="white" />
		</clipPath>
	</defs>
</svg>
